<?xml version="1.0" encoding="utf-8"?>
<!-- Generator: Adobe Illustrator 26.0.1, SVG Export Plug-In . SVG Version: 6.00 Build 0)  -->
<svg version="1.1" id="Layer_1" xmlns="http://www.w3.org/2000/svg" xmlns:xlink="http://www.w3.org/1999/xlink" x="0px" y="0px"
	 viewBox="0 0 96 96" style="enable-background:new 0 0 96 96;" xml:space="preserve">
<style type="text/css">
	.st0{fill-rule:evenodd;clip-rule:evenodd;fill:#0095D6;}
	.st1{fill-rule:evenodd;clip-rule:evenodd;fill:#FFFFFF;}
	.st2{fill-rule:evenodd;clip-rule:evenodd;fill:#EC1C24;}
</style>
<g transform="translate(-0.648 -0.569)">
	<path class="st0" d="M23.3,0.6L1.8,24.1l2,1.5l1.3,1.1l1.2,1.1l1.1,1.2l1,1.2l0.9,1.2l0.9,1.3L11,34l0.7,1.3l0.6,1.4l0.5,1.4
		l0.4,1.4l0.3,1.4l0.2,1.4l0.1,1.4l0,1.5l-0.1,1.5l-0.1,1.5l-0.2,1.5l-0.3,1.5l-0.4,1.5L12.1,54l-0.6,1.5l-0.7,1.5l-0.8,1.5L9,59.8
		l-1,1.4l-1.1,1.4L5.7,64l-1.3,1.4l-1.4,1.3l-2.3,2l48.1,27.9L96.4,69l-2.7-1.9l-1.6-1.3l-1.5-1.3l-1.3-1.4l-1.2-1.4L87,60.2l-1-1.5
		l-0.8-1.5l-0.7-1.5l-0.6-1.5l-0.5-1.5l-0.4-1.5l-0.3-1.5L82.6,48l0-1.5l0.1-1.5l0.2-1.5l0.3-1.5l0.4-1.5l0.4-1.5l0.5-1.4l0.6-1.4
		l0.7-1.4l0.8-1.3l0.9-1.3l1-1.2l1.1-1.2l1.1-1.1l1.2-1l1.3-1l1.4-0.9l2.2-1.3L74.5,0.8l-2,1.2l-1.6,0.9l-1.6,0.8l-1.6,0.7L66.1,5
		l-1.6,0.6L63,6.2l-1.6,0.5l-1.6,0.4l-1.6,0.4l-1.6,0.3l-1.6,0.3l-1.6,0.2L52,8.4l-1.6,0.1l-1.6,0l-1.6,0l-1.6-0.1l-1.6-0.2L42.6,8
		L41,7.8l-1.6-0.3L37.9,7l-1.6-0.5l-1.6-0.5l-1.6-0.6l-1.6-0.6L30,4.2l-1.6-0.7l-1.6-0.8l-1.6-0.9L23.3,0.6z"/>
	<path class="st1" d="M23.5,1.4L2.8,24c15.5,11.1,16,30.7-1,44.6l46.9,27.2l46.4-26.9C75.4,55.7,79.6,33,95.6,24.3L74.4,1.6
		C57.3,11.8,40.3,11.8,23.5,1.4z"/>
	<path class="st0" d="M23.9,5l-17,19.1c4,2.3,7.1,6,8.7,10.3l65.8,0.2c2.1-4.5,5.6-8.1,9.9-10.5L73.6,5.4
		C61.9,15.1,36.4,14.5,23.9,5L23.9,5z M14.3,58.1c-1.9,3.9-4.6,7.4-7.9,10.2l42.3,23.9l41.6-23.4c-3.5-2.8-6.4-6.4-8.5-10.4
		L14.3,58.1z"/>
	<path class="st2" d="M27.6,48.3l0-2.8l5.8,0l0,7.1l-2.7,0l-0.2-1.2c-1,1.1-2.4,1.6-3.8,1.5c-1.2,0-2.4-0.3-3.4-0.9
		c-0.9-0.6-1.7-1.4-2.2-2.3c-0.5-1-0.7-2.2-0.7-3.3c0-0.9,0.1-1.8,0.4-2.7c0.3-0.8,0.7-1.6,1.3-2.2c0.6-0.7,1.3-1.2,2.1-1.5
		c0.9-0.4,2-0.6,3-0.6c0.8,0,1.5,0.1,2.3,0.3c0.7,0.2,1.3,0.5,1.8,0.9c0.5,0.4,1,0.9,1.3,1.5c0.4,0.6,0.6,1.3,0.7,2l-4,0
		c-0.1-0.5-0.4-0.9-0.7-1.2c-0.4-0.3-0.9-0.5-1.4-0.5c-0.7,0-1.4,0.3-1.8,1c-0.5,0.8-0.7,1.8-0.7,2.8c0,0.6,0.1,1.2,0.2,1.8
		c0.3,1.1,1.3,1.8,2.4,1.7c0.5,0,1-0.1,1.4-0.4c0.4-0.2,0.7-0.6,0.8-1.1L27.6,48.3z"/>
	<path class="st2" d="M62.8,39.9l4,0l4.6,7l-0.1-2.8l0-4.1l4.1,0l0,12.8l-4,0l-4.6-7l0.1,2.9l0,4.1l-4.1,0L62.8,39.9z"/>
	<path class="st2" d="M76,18.2l4.2,4.6c-5.2,5.6-8.6,9.6-14.6,10.4L23,71.3c-1.2,1-2.7-0.7-1.6-1.7L64,31.4
		C66,25.1,70.3,22.2,76,18.2z"/>
	<path class="st2" d="M21.9,18l-4.2,4.5c5.1,5.6,8.5,9.6,14.5,10.5l42.2,38.5c1.2,1,2.7-0.7,1.6-1.7L33.9,31.3
		C31.9,25,27.6,22,21.9,18z"/>
	<path class="st1" d="M38.8,26.7l0-5.4l-1.5,0l0.8-1.6l2.5,0l0,7L38.8,26.7L38.8,26.7z M45.5,23.1c0.6,0,1.1-0.5,1.1-1.2
		c0-0.3-0.1-0.5-0.3-0.7c-0.2-0.2-0.5-0.3-0.8-0.3c-0.6,0-1.1,0.5-1.1,1.1C44.3,22.6,44.8,23.1,45.5,23.1
		C45.4,23.1,45.5,23.1,45.5,23.1z M45.6,24.3c-0.1,0-0.2,0.1-0.4,0.1c-0.1,0-0.3,0-0.4,0c-0.6,0-1.1-0.2-1.5-0.6
		c-0.4-0.4-0.6-1-0.6-1.6c0-0.7,0.2-1.4,0.8-1.9c0.5-0.5,1.3-0.7,2-0.7c0.7,0,1.4,0.2,2,0.7c0.5,0.5,0.8,1.2,0.7,1.9
		c0,0.5-0.1,0.9-0.3,1.3c-0.3,0.6-0.6,1.2-1,1.8l-1,1.5l-2,0L45.6,24.3L45.6,24.3z M54,23.3c0.1,0.9-0.2,1.9-0.7,2.7
		c-0.9,1.1-2.5,1.3-3.5,0.4c-0.2-0.1-0.3-0.3-0.4-0.4c-0.5-0.8-0.8-1.8-0.7-2.7c-0.1-1,0.2-1.9,0.7-2.7c0.9-1.1,2.4-1.3,3.5-0.5
		c0.2,0.1,0.3,0.3,0.5,0.5C53.8,21.4,54,22.3,54,23.3L54,23.3z M50.3,23.2c0,0.6,0,1.2,0.2,1.7c0.1,0.3,0.4,0.5,0.7,0.5
		c0.3,0,0.6-0.2,0.7-0.5c0.2-0.5,0.3-1.1,0.2-1.7c0-0.6,0-1.1-0.2-1.7c-0.1-0.4-0.5-0.6-0.9-0.5c-0.3,0.1-0.5,0.3-0.5,0.5
		C50.4,22.1,50.3,22.6,50.3,23.2L50.3,23.2z M57.1,23.4c-0.6,0-1,0.4-1.1,0.9c0,0.1,0,0.1,0,0.2c0,0.6,0.5,1.1,1.2,1.1
		c0.3,0,0.5-0.1,0.7-0.3c0.4-0.5,0.4-1.1,0-1.6C57.7,23.5,57.4,23.3,57.1,23.4z M57,22.2c0.1,0,0.2-0.1,0.4-0.1c0.1,0,0.3,0,0.4,0
		c0.6,0,1.1,0.2,1.5,0.6c0.4,0.4,0.6,1,0.6,1.6c0,0.7-0.2,1.4-0.8,1.9c-1.2,0.9-2.8,0.9-4,0c-0.5-0.5-0.8-1.2-0.7-1.9
		c0-0.4,0.1-0.8,0.2-1.2c0.3-0.7,0.6-1.3,1-1.9l1-1.5l2,0L57,22.2z"/>
	<path class="st1" d="M33.4,64.6l1.8,0l0,3.5c0,0.5,0,0.9,0,1.1c0,0.2,0.1,0.4,0.1,0.6c0.1,0.2,0.2,0.3,0.4,0.4
		c0.2,0.1,0.4,0.2,0.6,0.1c0.2,0,0.4,0,0.6-0.1c0.2-0.1,0.3-0.2,0.4-0.4c0.1-0.2,0.1-0.4,0.1-0.6c0-0.2,0-0.6,0-1.1v-0.5l0-3l1.8,0
		l0,3.7c0,0.6,0,1.2-0.1,1.7c-0.1,0.3-0.2,0.7-0.4,0.9c-0.2,0.3-0.6,0.5-0.9,0.6c-0.5,0.2-0.9,0.2-1.4,0.2c-0.5,0-1-0.1-1.4-0.2
		c-0.4-0.1-0.7-0.4-0.9-0.6c-0.2-0.3-0.4-0.6-0.4-0.9c-0.1-0.6-0.1-1.1-0.1-1.7v-0.7L33.4,64.6z M40,71.7l0-7.1l1.7,0l2.4,3.7
		c0.1,0.1,0.2,0.3,0.2,0.4c0.1,0.2,0.2,0.5,0.4,0.8c0-0.3-0.1-0.6-0.1-0.8s0-0.4,0-0.6l0-3.5l1.7,0l0,7.1l-1.7,0L42.2,68
		c-0.1-0.1-0.2-0.3-0.2-0.4c-0.1-0.2-0.2-0.5-0.3-0.8c0,0.3,0.1,0.6,0.1,0.8c0,0.2,0,0.4,0,0.6l0,3.5L40,71.7L40,71.7z M47.4,71.7
		l0-7.1l1.8,0l0,7.1L47.4,71.7L47.4,71.7z M51.9,69.1h1.8L53,66.7c0-0.1,0-0.2-0.1-0.3c0-0.2-0.1-0.4-0.1-0.6c0,0.2-0.1,0.3-0.1,0.5
		s-0.1,0.3-0.1,0.5L51.9,69.1L51.9,69.1z M49.5,71.7l2.3-7.1l2.2,0l2.2,7.1l-1.8,0l-0.3-1.3l-2.5,0l-0.3,1.3L49.5,71.7L49.5,71.7z
		 M54.3,62.3c-0.1,0.3-0.2,0.6-0.4,0.9c-0.1,0.2-0.4,0.3-0.6,0.3c-0.1,0-0.1,0-0.2,0c-0.1,0-0.1,0-0.2,0l-0.4-0.1c0,0,0,0,0,0
		c-0.1,0-0.2-0.1-0.3-0.1c-0.1,0-0.2,0-0.2,0.1c-0.1,0.1-0.1,0.2-0.2,0.3h-0.5c0-0.3,0.2-0.6,0.4-0.9c0.1-0.2,0.4-0.3,0.6-0.3
		c0.1,0,0.1,0,0.2,0c0.1,0,0.1,0,0.2,0.1l0.4,0.1c0,0,0.1,0,0.1,0c0,0,0.1,0,0.1,0c0.1,0,0.2,0,0.2-0.1c0.1-0.1,0.1-0.2,0.2-0.3
		L54.3,62.3L54.3,62.3z M63,68.2c0-0.5-0.1-1-0.3-1.4c-0.2-0.4-0.4-0.9-0.7-1.2c-0.3-0.3-0.7-0.6-1.1-0.8c-0.8-0.4-1.8-0.4-2.7,0
		c-0.4,0.2-0.8,0.5-1.1,0.8c-0.3,0.3-0.6,0.8-0.8,1.2c-0.2,0.5-0.3,0.9-0.3,1.4c0,0.5,0.1,1,0.3,1.4c0.2,0.4,0.4,0.9,0.8,1.2
		c0.3,0.3,0.7,0.6,1.1,0.8c0.8,0.4,1.8,0.4,2.7,0c0.4-0.2,0.8-0.5,1.1-0.8c0.3-0.3,0.6-0.8,0.8-1.2C62.9,69.2,63,68.7,63,68.2
		L63,68.2z M59.5,70.3c-0.5,0-0.9-0.2-1.2-0.6c-0.6-0.9-0.6-2.1,0-3c0.5-0.7,1.5-0.8,2.1-0.3c0.1,0.1,0.2,0.2,0.3,0.3
		c0.6,0.9,0.6,2.1,0,3C60.5,70.1,60,70.3,59.5,70.3z"/>
</g>
</svg>
